<svg xmlns="http://www.w3.org/2000/svg" viewBox="94.5664 320.256 1349.632 411.648" style="max-height: 500px" width="1349.632" height="411.648">
    <style>
        :root {
            --bg: white;
            --dark: #003A70;
            --light: #3070FF;

            --dolphin: #003A70;
        }
    </style>

    <g id="background">
        <path fill="white" d="M0 0h1536v1024H0V0z"/>
    </g>

    <defs>
        <mask id="building-mask">
            <path fill="white" d="M416 327l3 1v290l-12 6c-8.066 5.218-14.998 12.156-19 21 .186 2.778.186 2.778 1 5 4.188.085 8.223.115 12.375-.5 5.799-.8 12.02-1.368 17.625.5l1 11 2.555.297 3.32.453 3.305.422c2.82.828 2.82.828 4.195 2.547.758 2.767.818 5.164.75 8.031l-.055 2.984L434 678c4.368.655 6.667-.155 10.125-2.688 2.557-2.018 3.97-3.461 5.75-6.25C452 667 452 667 453.931 667.013l2.378.351c6.304.772 12.533.787 18.878.762l3.59-.006c8.444-.041 16.814-.33 25.223-1.119-20.963 17.45-51.3 26.44-78.188 26.25l-3.365.023c-6.465-.015-12.197-.61-18.447-2.273 2.29.8 4.58 1.59 6.875 2.375l1.914.672c19.246 6.544 41.957 6.434 61.211-.047l2.24-.731c20.805-6.9 39.445-17.071 57.97-28.65C550.298 654.587 567.55 647.443 586 643l2.018-.496c11.471-2.667 23.016-2.789 34.732-2.817l2.245-.01c10.175-.027 19.953.718 30.005 2.323l3.694.58c16.292 2.69 31.731 9.322 46.931 15.545 17.883 7.28 35.18 11.219 54.375 14.875v48H500c3.225-1.612 5.872-2.631 9.293-3.602 23.937-6.998 46.946-16.202 70.044-25.558l2.674-1.08c1.667-.673 3.333-1.349 4.997-2.028 35.56-14.348 66.557-13.55 103.143-3.315a228.53 228.53 0 0022.849 5.02l2.91.497c6.072.956 11.947 1.253 18.09 1.066l-2.754-.48-3.808-.707-3.692-.668c-13.373-2.953-25.882-8.608-38.34-14.136-31.54-13.951-63.894-15.874-96.406-4.009l-2.891 1.052c-8.118 3.033-15.894 6.573-23.672 10.385-1.258.612-2.516 1.223-3.775 1.833-6.384 3.104-12.74 6.26-19.068 9.476-36.957 18.767-68.855 26.757-110.235 26.602-4.404-.013-8.808-.008-13.212-.006-7.609.001-15.217-.008-22.826-.025-11.001-.024-22.002-.032-33.003-.036a43665.8 43665.8 0 01-53.56-.055 60645.876 60645.876 0 00-71.347-.075c-44.47-.031-88.94-.084-133.411-.151-.467-7.222-.82-14.44-1.036-21.674a271.048 271.048 0 00-.473-10.068c-1.368-21.663-1.368-21.663 3.409-27.632 4.695-3.945 9.92-6.427 15.605-8.634 3.024-1.202 5.831-2.676 8.682-4.236 3.203-1.727 6.51-3.233 9.813-4.756l2.393-1.113c12.879-5.93 25.795-10.649 39.607-13.887l2.678-.637c27.3-6.206 56.311-5.12 83.322 1.637l.002-3.11c.014-24.954.057-49.907.13-74.861.035-12.068.06-24.135.064-36.203.003-10.516.023-21.032.065-31.549.02-5.57.033-11.14.025-16.71-.007-5.24.008-10.48.042-15.721.008-1.925.008-3.85-.001-5.775-.012-2.626.007-5.25.034-7.877l-.033-2.314c.076-3.968.507-5.68 3.068-8.78 2.387-1.925 4.758-3.783 7.28-5.526l2.723-1.89 2.913-1.996 3.05-2.106c8.358-5.754 16.8-11.38 25.26-16.984 6.429-4.268 12.761-8.633 18.987-13.192 3.988-2.878 8.105-5.563 12.202-8.282 5.045-3.36 10.054-6.774 15.064-10.186l3.275-2.229c6.084-4.14 12.162-8.289 18.236-12.443 3.574-2.441 7.154-4.874 10.734-7.306 2.603-1.771 5.2-3.55 7.795-5.332 1.669-1.143 3.34-2.281 5.014-3.417a1027.98 1027.98 0 006.394-4.373l2.907-1.963 2.575-1.758L416 327z"/>

            <path fill="black" d="M364 408c4.056 1.814 6.47 4.214 8.938 7.875 1.259 3.704 1.548 6.236 1.062 10.125-2.28 4.306-4.81 7.486-9 10-4.466 1.208-7.912 1.37-12.313-.125-3.478-2.427-5.79-5.083-7.687-8.875-.615-4.262-.95-8.301 1.2-12.145 5.002-5.985 10.01-8.13 17.8-6.855z"/>
            <path fill="black" d="M280 481h112v12H280v-12z"/>
            <path fill="black" d="M280 516h112v13H280v-13z"/>
            <path fill="black" d="M280 559h112v15H280v-15z"/>
            <path fill="black" d="M280 600h112v15H280v-15z"/>
        </mask>
    </defs>

    <g id="building">
        <path mask="url(#building-mask)" fill="#003A70" d="M416 327l3 1v290l-12 6c-8.066 5.218-14.998 12.156-19 21 .186 2.778.186 2.778 1 5 4.188.085 8.223.115 12.375-.5 5.799-.8 12.02-1.368 17.625.5l1 11 2.555.297 3.32.453 3.305.422c2.82.828 2.82.828 4.195 2.547.758 2.767.818 5.164.75 8.031l-.055 2.984L434 678c4.368.655 6.667-.155 10.125-2.688 2.557-2.018 3.97-3.461 5.75-6.25C452 667 452 667 453.931 667.013l2.378.351c6.304.772 12.533.787 18.878.762l3.59-.006c8.444-.041 16.814-.33 25.223-1.119-20.963 17.45-51.3 26.44-78.188 26.25l-3.365.023c-6.465-.015-12.197-.61-18.447-2.273 2.29.8 4.58 1.59 6.875 2.375l1.914.672c19.246 6.544 41.957 6.434 61.211-.047l2.24-.731c20.805-6.9 39.445-17.071 57.97-28.65C550.298 654.587 567.55 647.443 586 643l2.018-.496c11.471-2.667 23.016-2.789 34.732-2.817l2.245-.01c10.175-.027 19.953.718 30.005 2.323l3.694.58c16.292 2.69 31.731 9.322 46.931 15.545 17.883 7.28 35.18 11.219 54.375 14.875v48H500c3.225-1.612 5.872-2.631 9.293-3.602 23.937-6.998 46.946-16.202 70.044-25.558l2.674-1.08c1.667-.673 3.333-1.349 4.997-2.028 35.56-14.348 66.557-13.55 103.143-3.315a228.53 228.53 0 0022.849 5.02l2.91.497c6.072.956 11.947 1.253 18.09 1.066l-2.754-.48-3.808-.707-3.692-.668c-13.373-2.953-25.882-8.608-38.34-14.136-31.54-13.951-63.894-15.874-96.406-4.009l-2.891 1.052c-8.118 3.033-15.894 6.573-23.672 10.385-1.258.612-2.516 1.223-3.775 1.833-6.384 3.104-12.74 6.26-19.068 9.476-36.957 18.767-68.855 26.757-110.235 26.602-4.404-.013-8.808-.008-13.212-.006-7.609.001-15.217-.008-22.826-.025-11.001-.024-22.002-.032-33.003-.036a43665.8 43665.8 0 01-53.56-.055 60645.876 60645.876 0 00-71.347-.075c-44.47-.031-88.94-.084-133.411-.151-.467-7.222-.82-14.44-1.036-21.674a271.048 271.048 0 00-.473-10.068c-1.368-21.663-1.368-21.663 3.409-27.632 4.695-3.945 9.92-6.427 15.605-8.634 3.024-1.202 5.831-2.676 8.682-4.236 3.203-1.727 6.51-3.233 9.813-4.756l2.393-1.113c12.879-5.93 25.795-10.649 39.607-13.887l2.678-.637c27.3-6.206 56.311-5.12 83.322 1.637l.002-3.11c.014-24.954.057-49.907.13-74.861.035-12.068.06-24.135.064-36.203.003-10.516.023-21.032.065-31.549.02-5.57.033-11.14.025-16.71-.007-5.24.008-10.48.042-15.721.008-1.925.008-3.85-.001-5.775-.012-2.626.007-5.25.034-7.877l-.033-2.314c.076-3.968.507-5.68 3.068-8.78 2.387-1.925 4.758-3.783 7.28-5.526l2.723-1.89 2.913-1.996 3.05-2.106c8.358-5.754 16.8-11.38 25.26-16.984 6.429-4.268 12.761-8.633 18.987-13.192 3.988-2.878 8.105-5.563 12.202-8.282 5.045-3.36 10.054-6.774 15.064-10.186l3.275-2.229c6.084-4.14 12.162-8.289 18.236-12.443 3.574-2.441 7.154-4.874 10.734-7.306 2.603-1.771 5.2-3.55 7.795-5.332 1.669-1.143 3.34-2.281 5.014-3.417a1027.98 1027.98 0 006.394-4.373l2.907-1.963 2.575-1.758L416 327z"/>
    </g>

    <g>
        <text fill="#003A70" letter-spacing="4" font-size="180" font-weight="700" font-family="sans-serif" y="495" x="520">
            BUNBURY
        </text>

        <text fill="#3070FF" letter-spacing="6" font-size="100" font-weight="600" font-family="sans-serif" y="610" x="660">
            HIRE &amp; SALES
        </text>
    </g>

    <g id="dolphin">
        <path fill="#003A70" d="M520 520c15.373-.785 30.965 1.353 43.09 11.8 2.354 2.325 4.533 4.718 6.57 7.325 3.322 2.662 6.742 2.803 10.84 3.25 21.224 2.882 44.022 9.575 57.559 27.324 4.315 6.433 7.666 12.727 8.136 20.551.609 8.95 2.933 13.061 9.463 18.843l1.592 1.384c3.03 2.78 4.527 4.518 4.98 8.593-.119 5.708-.119 5.708-1.23 7.93-6.924.596-11.167-.572-17.063-4.125-8.065-4.562-16.177-7.898-24.937-10.875l-2.836-1.031c-7.453-2.54-14.559-3.822-21.89-.317a345.424 345.424 0 00-6.089 3.205C576.725 619.93 563.96 622.465 551 622l-3-2c-.188-2.625-.188-2.625 0-5l2.195-1.102c9.918-4.955 9.918-4.955 15.805-13.898-35.922-4.79-74.301 3.84-103.778 25.294-3.939 3.022-7.711 6.195-11.222 9.706-.228 1.987-.228 1.987-.09 4.254l.06 2.592c.061 1.784.126 3.568.196 5.351.162 7.514-.908 14.27-5.666 20.303-2.5 2.5-2.5 2.5-5.5 3.5l-.559-2.492c-2.256-8.684-5.459-14.74-12.441-20.508-2.738-1.535-4.91-2.215-8-3-.58-.182-1.16-.364-1.758-.55-3.278-.658-6.466-.582-9.805-.575l-2.037-.012c-3.075.006-5.46.157-8.4 1.137 2.594-9.222 11.184-15.304 19-20 5.41-2.99 9.755-5.191 16-4.875 3.998-.215 4.91-1.027 7.684-4.055 2.44-3.266 4.684-6.663 6.938-10.06 16.027-23.382 40.396-43.978 67.073-53.756 6.048-2.04 6.048-2.04 10.649-6.152 1.596-5.114 1.716-10-.723-14.836a110.076 110.076 0 00-3.406-5.04C519 524 519 524 519.316 521.712L520 520z"/>
    </g>

    <g id="wave">
        <path fill="#3070FF" d="M258 628l2.816.473C263 629 263 629 265 631c2.236.577 4.49 1.085 6.75 1.563 24.375 5.69 46.41 18.806 67.592 31.665 32.313 19.525 63.311 35.84 101.783 34.585l2.077-.067c10.695-.375 20.636-1.324 30.798-4.746l2.228-.727c20.809-6.9 39.453-17.073 57.982-28.654C550.298 654.587 567.55 647.443 586 643l2.018-.496c11.471-2.667 23.016-2.789 34.732-2.817l2.245-.01c10.175-.027 19.953.718 30.005 2.323l3.694.58c16.292 2.69 31.731 9.322 46.931 15.545 17.883 7.28 35.18 11.219 54.375 14.875v48H500c3.225-1.612 5.872-2.631 9.293-3.602 23.937-6.998 46.946-16.202 70.044-25.558l2.674-1.08c1.667-.673 3.333-1.349 4.997-2.028 35.56-14.348 66.557-13.55 103.143-3.315a228.53 228.53 0 0022.849 5.02l2.91.497c6.072.956 11.947 1.253 18.09 1.066l-2.754-.48-3.808-.708-3.692-.667c-13.373-2.953-25.882-8.608-38.34-14.136-31.54-13.951-63.894-15.874-96.406-4.009l-2.891 1.052c-8.118 3.033-15.894 6.573-23.672 10.385-1.258.612-2.516 1.223-3.775 1.833-6.384 3.104-12.74 6.26-19.068 9.476-36.957 18.767-68.855 26.757-110.235 26.602-4.404-.013-8.808-.008-13.212-.006-7.609.001-15.217-.008-22.826-.025-11.001-.024-22.002-.032-33.003-.036a43665.8 43665.8 0 01-53.56-.055 60645.876 60645.876 0 00-71.347-.075c-44.47-.031-88.94-.084-133.411-.151-.467-7.222-.82-14.44-1.036-21.674a271.048 271.048 0 00-.473-10.068c-1.368-21.663-1.368-21.663 3.409-27.632 4.695-3.945 9.92-6.427 15.605-8.634 3.024-1.202 5.831-2.676 8.682-4.236 3.203-1.727 6.51-3.233 9.813-4.756l2.393-1.113c12.879-5.93 25.795-10.649 39.607-13.887l2.678-.637c23.856-5.423 51.464-6.055 75.322-.363z"/>
        <path fill="#003A70" d="M238 659l2.387.667c21.388 6.087 41.66 16.202 61.435 26.232C324.816 697.535 348.23 707.8 373 715l3.665 1.073c9.81 2.675 18.855 3.53 28.991 3.536 1.524.015 3.049.032 4.573.05 3.952.044 7.903.064 11.855.08 4.057.019 8.113.06 12.17.1 7.915.076 15.83.126 23.746.161v1H102c0-32 0-32 4-36 2.204-1.429 2.204-1.429 4.605-2.734l2.706-1.479 2.876-1.537 2.975-1.602C155.6 658.19 197.09 646.958 238 659z"/>
    </g>
</svg>